<svg width="30" height="30" viewBox="0 0 30 30" fill="none" xmlns="http://www.w3.org/2000/svg">
<path d="M26.2852 18.1523C25.7345 20.1229 24.6776 21.915 23.2194 23.3503C21.7612 24.7856 19.9527 25.8142 17.9736 26.3336C15.9946 26.853 13.914 26.8452 11.9389 26.311C9.96385 25.7767 8.16305 24.7347 6.71567 23.2885C5.2683 21.8423 4.22479 20.0423 3.68896 18.0677C3.15313 16.093 3.14364 14.0125 3.66145 12.033C4.17926 10.0535 5.20631 8.24415 6.64044 6.78481C8.07457 5.32548 9.8658 4.26706 11.8359 3.71484C11.9803 3.66837 12.1338 3.65806 12.2831 3.68482C12.4324 3.71159 12.5728 3.77462 12.692 3.86836C12.8112 3.9621 12.9055 4.08368 12.9667 4.22243C13.0279 4.36117 13.0541 4.51283 13.043 4.66406C13.0427 4.73581 13.0308 4.80703 13.0078 4.875C12.5429 6.55307 12.5314 8.32443 12.9746 10.0084C13.4177 11.6923 14.2996 13.2286 15.5303 14.4605C16.7609 15.6923 18.2964 16.5757 19.9799 17.0205C21.6634 17.4652 23.4348 17.4555 25.1133 16.9922L25.3711 16.9453C25.575 16.9437 25.774 17.0078 25.9386 17.1281C26.1032 17.2484 26.2248 17.4185 26.2852 17.6133C26.3441 17.7881 26.3441 17.9775 26.2852 18.1523V18.1523Z" fill="#333333"/>
</svg>
