<svg width="26" height="26" viewBox="0 0 26 26" fill="none" xmlns="http://www.w3.org/2000/svg">
<path d="M20.625 12.6562C20.625 14.2323 20.1576 15.773 19.282 17.0835C18.4064 18.3939 17.1619 19.4153 15.7058 20.0184C14.2497 20.6216 12.6474 20.7794 11.1016 20.4719C9.55584 20.1644 8.13594 19.4055 7.02149 18.291C5.90704 17.1766 5.14809 15.7567 4.84062 14.2109C4.53314 12.6651 4.69095 11.0628 5.29409 9.60674C5.89722 8.15064 6.9186 6.90609 8.22905 6.03048C9.5395 5.15486 11.0802 4.6875 12.6562 4.6875C14.7687 4.6906 16.7938 5.53116 18.2876 7.02492C19.7813 8.51868 20.6219 10.5438 20.625 12.6562ZM12.6562 2.8125C12.9049 2.8125 13.1433 2.71373 13.3192 2.53791C13.495 2.3621 13.5938 2.12364 13.5938 1.875V0.9375C13.5938 0.68886 13.495 0.450403 13.3192 0.274587C13.1433 0.098772 12.9049 0 12.6562 0C12.4076 0 12.1692 0.098772 11.9933 0.274587C11.8175 0.450403 11.7188 0.68886 11.7188 0.9375V1.875C11.7188 2.12364 11.8175 2.3621 11.9933 2.53791C12.1692 2.71373 12.4076 2.8125 12.6562 2.8125ZM4.37109 5.69531C4.54832 5.86783 4.78588 5.96436 5.0332 5.96436C5.28053 5.96436 5.51809 5.86783 5.69531 5.69531C5.87064 5.51956 5.9691 5.28145 5.9691 5.0332C5.9691 4.78496 5.87064 4.54684 5.69531 4.37109L5.02734 3.70312C4.84901 3.54154 4.61536 3.45472 4.37478 3.46064C4.1342 3.46657 3.90511 3.56478 3.73495 3.73495C3.56478 3.90511 3.46657 4.1342 3.46064 4.37478C3.45472 4.61536 3.54154 4.84901 3.70312 5.02734L4.37109 5.69531ZM1.875 11.7188H0.9375C0.68886 11.7188 0.450403 11.8175 0.274587 11.9933C0.098772 12.1692 0 12.4076 0 12.6562C0 12.9049 0.098772 13.1433 0.274587 13.3192C0.450403 13.495 0.68886 13.5938 0.9375 13.5938H1.875C2.12364 13.5938 2.3621 13.495 2.53791 13.3192C2.71373 13.1433 2.8125 12.9049 2.8125 12.6562C2.8125 12.4076 2.71373 12.1692 2.53791 11.9933C2.3621 11.8175 2.12364 11.7188 1.875 11.7188ZM4.37109 19.6172L3.70312 20.2852C3.5278 20.4609 3.42934 20.699 3.42934 20.9473C3.42934 21.1955 3.5278 21.4336 3.70312 21.6094C3.88308 21.7814 4.12215 21.8779 4.37109 21.8789C4.6167 21.8785 4.85235 21.7817 5.02734 21.6094L5.69531 20.9414C5.8569 20.7631 5.94372 20.5294 5.9378 20.2888C5.93187 20.0483 5.83366 19.8192 5.66349 19.649C5.49332 19.4788 5.26424 19.3806 5.02365 19.3747C4.78307 19.3688 4.54943 19.4556 4.37109 19.6172V19.6172ZM12.6562 22.5C12.4076 22.5 12.1692 22.5988 11.9933 22.7746C11.8175 22.9504 11.7188 23.1889 11.7188 23.4375V24.375C11.7188 24.6236 11.8175 24.8621 11.9933 25.0379C12.1692 25.2137 12.4076 25.3125 12.6562 25.3125C12.9049 25.3125 13.1433 25.2137 13.3192 25.0379C13.495 24.8621 13.5938 24.6236 13.5938 24.375V23.4375C13.5938 23.1889 13.495 22.9504 13.3192 22.7746C13.1433 22.5988 12.9049 22.5 12.6562 22.5ZM20.9414 19.6172C20.7631 19.4556 20.5294 19.3688 20.2888 19.3747C20.0483 19.3806 19.8192 19.4788 19.649 19.649C19.4788 19.8192 19.3806 20.0483 19.3747 20.2888C19.3688 20.5294 19.4556 20.7631 19.6172 20.9414L20.2852 21.6094C20.4602 21.7817 20.6958 21.8785 20.9414 21.8789C21.1904 21.8779 21.4294 21.7814 21.6094 21.6094C21.7847 21.4336 21.8832 21.1955 21.8832 20.9473C21.8832 20.699 21.7847 20.4609 21.6094 20.2852L20.9414 19.6172ZM24.375 11.7188H23.4375C23.1889 11.7188 22.9504 11.8175 22.7746 11.9933C22.5988 12.1692 22.5 12.4076 22.5 12.6562C22.5 12.9049 22.5988 13.1433 22.7746 13.3192C22.9504 13.495 23.1889 13.5938 23.4375 13.5938H24.375C24.6236 13.5938 24.8621 13.495 25.0379 13.3192C25.2137 13.1433 25.3125 12.9049 25.3125 12.6562C25.3125 12.4076 25.2137 12.1692 25.0379 11.9933C24.8621 11.8175 24.6236 11.7188 24.375 11.7188ZM20.2852 5.96484C20.407 5.96592 20.5278 5.94263 20.6405 5.89634C20.7532 5.85006 20.8555 5.78171 20.9414 5.69531L21.6094 5.02734C21.7035 4.94207 21.7793 4.83856 21.8322 4.72311C21.8851 4.60765 21.914 4.48265 21.9171 4.35569C21.9202 4.22873 21.8975 4.10245 21.8504 3.98453C21.8032 3.86661 21.7326 3.7595 21.6428 3.6697C21.553 3.5799 21.4459 3.50928 21.328 3.46212C21.21 3.41497 21.0838 3.39227 20.9568 3.39539C20.8299 3.39852 20.7049 3.42741 20.5894 3.48031C20.4739 3.53321 20.3704 3.60901 20.2852 3.70312L19.6172 4.37109C19.4419 4.54684 19.3434 4.78496 19.3434 5.0332C19.3434 5.28145 19.4419 5.51956 19.6172 5.69531C19.7045 5.78314 19.8087 5.85232 19.9235 5.89865C20.0383 5.94498 20.1614 5.9675 20.2852 5.96484Z" fill="#CCCCCC"/>
</svg>
